<?xml version="1.0" encoding="UTF-8" standalone="no"?>
<!-- Created with Inkscape (http://www.inkscape.org/) -->

<svg
   width="120"
   height="120"
   viewBox="0 0 120 120"
   version="1.1"
   id="svg1"
   inkscape:version="1.3 (0e150ed6c4, 2023-07-21)"
   sodipodi:docname="icon.svg"
   xmlns:inkscape="http://www.inkscape.org/namespaces/inkscape"
   xmlns:sodipodi="http://sodipodi.sourceforge.net/DTD/sodipodi-0.dtd"
   xmlns="http://www.w3.org/2000/svg"
   xmlns:svg="http://www.w3.org/2000/svg">
  <sodipodi:namedview
     id="namedview1"
     pagecolor="#ffffff"
     bordercolor="#000000"
     borderopacity="0.25"
     inkscape:showpageshadow="2"
     inkscape:pageopacity="0.0"
     inkscape:pagecheckerboard="0"
     inkscape:deskcolor="#d1d1d1"
     inkscape:document-units="px"
     inkscape:zoom="3.4208333"
     inkscape:cx="-0.8769793"
     inkscape:cy="91.352011"
     inkscape:window-width="1920"
     inkscape:window-height="1017"
     inkscape:window-x="-8"
     inkscape:window-y="1072"
     inkscape:window-maximized="1"
     inkscape:current-layer="svg1" />
  <defs
     id="defs1">
    <rect
       x="0"
       y="0"
       width="120"
       height="120"
       id="rect4" />
    <rect
       x="0"
       y="0"
       width="120"
       height="120"
       id="rect3" />
    <rect
       x="0"
       y="0"
       width="120"
       height="120"
       id="rect2" />
    <rect
       x="0"
       y="0"
       width="120"
       height="120"
       id="rect1" />
  </defs>
  <path
     d="m 11.143156,88.249778 7.488,-2.264889 q 0.832,-0.277333 1.294222,-0.785778 Q 20.3876,84.690667 20.3876,83.673778 V 33.384 q 0,-0.970667 -0.554666,-1.479111 -0.508445,-0.508445 -1.201778,-0.739556 L 11.143156,28.808 V 25.433778 H 39.338712 V 28.808 l -7.441778,2.357333 q -0.785778,0.231111 -1.294222,0.785778 -0.508445,0.508445 -0.508445,1.432889 v 50.289778 q 0,1.016889 0.508445,1.571555 0.554666,0.508445 1.294222,0.739556 l 7.441778,2.264889 v 3.466666 H 11.143156 Z m 38.456879,0 7.118222,-2.264889 q 0.739555,-0.231111 1.248,-0.739556 0.508444,-0.554666 0.508444,-1.571555 V 33.384 q 0,-0.970667 -0.508444,-1.479111 -0.508445,-0.508445 -1.248,-0.739556 L 49.600035,28.808 v -3.374222 h 27.456 V 28.808 l -7.072,2.357333 q -0.785778,0.231111 -1.294223,0.785778 -0.508444,0.508445 -0.508444,1.432889 V 59.545778 L 94.296924,31.304 89.952035,28.808 V 25.433778 H 111.39915 V 28.808 l -7.16445,2.311111 q -0.832,0.231111 -1.94133,0.878222 -1.06311,0.600889 -1.94134,1.571556 l -19.043551,19.968 22.325331,29.813333 q 0.32356,0.369778 0.69334,0.832 0.416,0.462222 0.832,0.878222 0.416,0.416 0.87822,0.739556 0.46222,0.323556 0.87822,0.462222 l 6.60978,2.172445 v 3.281777 H 90.27559 v -3.281777 l 3.744,-2.126223 -19.413333,-26.346666 -6.424889,3.697778 v 20.014222 q 0,1.016889 0.508444,1.571555 0.508445,0.508445 1.294223,0.739556 l 7.072,2.264889 v 3.466666 h -27.456 z"
     id="text3"
     style="font-size:104px;font-family:'Sitka Text';-inkscape-font-specification:'Sitka Text';text-align:center;text-anchor:middle;white-space:pre;fill:#9f8313;stroke-width:0;stroke-linejoin:round"
     inkscape:label="text"
     transform="matrix(1.1211378,0,0,1.1211378,-9.8852973,-5.6707712)"
     aria-label="IK" />
</svg>
